<svg width="61" height="74" viewBox="0 0 61 74" fill="none" xmlns="http://www.w3.org/2000/svg">
<path fill-rule="evenodd" clip-rule="evenodd" d="M53 0H20.5L0 20V66C0 70.4183 3.58172 74 8 74H53C57.4183 74 61 70.4183 61 66V8C61 3.58172 57.4183 0 53 0ZM1.96816 20L16.5 20C18.7091 20 20.5 18.2091 20.5 16L20.5 1.62744L1.96816 20ZM10 25C9.44771 25 9 25.4477 9 26V30C9 30.5523 9.44772 31 10 31H51C51.5523 31 52 30.5523 52 30V26C52 25.4477 51.5523 25 51 25H10ZM9 35C9 34.4477 9.44771 34 10 34H51C51.5523 34 52 34.4477 52 35V39C52 39.5523 51.5523 40 51 40H10C9.44772 40 9 39.5523 9 39V35ZM10 43C9.44771 43 9 43.4477 9 44V48C9 48.5523 9.44772 49 10 49H51C51.5523 49 52 48.5523 52 48V44C52 43.4477 51.5523 43 51 43H10ZM9 53C9 52.4477 9.44771 52 10 52H51C51.5523 52 52 52.4477 52 53V57C52 57.5523 51.5523 58 51 58H10C9.44772 58 9 57.5523 9 57V53Z" fill="black"/>
</svg>