<svg width="97" height="52" viewBox="0 0 97 52" fill="none" xmlns="http://www.w3.org/2000/svg">
<path fill-rule="evenodd" clip-rule="evenodd" d="M0 15C0 6.71573 6.71573 0 15 0H49C57.2843 0 64 6.71573 64 15V16.8008C67.4961 13.8078 72.0369 12 77 12C88.0457 12 97 20.9543 97 32C97 43.0457 88.0457 52 77 52C72.0369 52 67.4961 50.1922 64 47.1992V52H15C6.71573 52 0 45.2843 0 37V15ZM59.6756 42C59.781 42.1821 59.8891 42.3624 60 42.5408V47H44V42H59.6756ZM57.0246 33C57.1099 34.7339 57.4161 36.4097 57.9156 38H44V33H57.0246ZM58.6642 24C57.9775 25.5717 57.4869 27.2486 57.2235 29H44V24H58.6642ZM4 15H20V20H4V15ZM20 24H4V29H20V24ZM4 33H20V38H4V33ZM40 15H24V20H40V15ZM24 24H40V29H24V24ZM40 33H24V38H40V33ZM24 42H40V47H24V42ZM60 15H44V20H60V15ZM75.0888 43.6136V34.2727H65.7479V30.4545H75.0888V21.1136H78.907V30.4545H88.2479V34.2727H78.907V43.6136H75.0888Z" fill="black"/>
</svg>