<svg width="28" height="28" viewBox="0 0 28 28" fill="none" xmlns="http://www.w3.org/2000/svg">
<circle cx="14" cy="14" r="12" stroke="#008AFF" stroke-width="3"/>
<path d="M15.1772 10.3181C15.3986 10.3181 15.5549 10.3669 15.646 10.4645C15.7437 10.5557 15.7925 10.7119 15.7925 10.9333V17.3395H18.5366C18.6929 17.3395 18.8133 17.3688 18.8979 17.4274C18.9826 17.4795 19.0444 17.5772 19.0835 17.7204C19.1291 17.8636 19.1519 18.072 19.1519 18.3454C19.1519 18.6188 19.1291 18.8272 19.0835 18.9704C19.0444 19.1136 18.9826 19.2113 18.8979 19.2634C18.8133 19.3155 18.6929 19.3415 18.5366 19.3415H10.6851C10.5288 19.3415 10.4084 19.3155 10.3237 19.2634C10.2391 19.2113 10.174 19.1136 10.1284 18.9704C10.0894 18.8272 10.0698 18.6188 10.0698 18.3454C10.0698 18.072 10.0894 17.8636 10.1284 17.7204C10.174 17.5772 10.2391 17.4795 10.3237 17.4274C10.4084 17.3688 10.5288 17.3395 10.6851 17.3395H13.3511V12.32H11.271C11.1147 12.32 10.9943 12.294 10.9097 12.2419C10.825 12.1898 10.7599 12.0921 10.7144 11.9489C10.6753 11.8057 10.6558 11.5974 10.6558 11.3239C10.6558 11.0505 10.6753 10.8421 10.7144 10.6989C10.7599 10.5557 10.825 10.458 10.9097 10.4059C10.9943 10.3474 11.1147 10.3181 11.271 10.3181H15.1772ZM14.5425 6.03094C15.0047 6.03094 15.327 6.07977 15.5093 6.17743C15.6981 6.26858 15.7925 6.42483 15.7925 6.64618V8.24774C15.7925 8.4691 15.7046 8.6286 15.5288 8.72626C15.3595 8.8174 15.047 8.86298 14.5913 8.86298C14.1356 8.86298 13.8133 8.8174 13.6245 8.72626C13.4422 8.6286 13.3511 8.4691 13.3511 8.24774V6.64618C13.3511 6.41831 13.4357 6.25881 13.605 6.16766C13.7743 6.07652 14.0868 6.03094 14.5425 6.03094Z" fill="#008AFF"/>
</svg>