<svg width="73" height="62" viewBox="0 0 73 62" fill="none" xmlns="http://www.w3.org/2000/svg">
<path fill-rule="evenodd" clip-rule="evenodd" d="M63.5651 22.1281C68.9074 21.3126 73 16.6983 73 11.128C73 4.9822 68.0178 0 61.872 0C56.3893 0 51.8327 3.96498 50.9131 9.18395C48.4169 7.32912 45.3244 6.23171 41.9756 6.23171H15C6.71573 6.23171 0 12.9474 0 21.2317V37.5244C0 43.9883 4.08856 49.4972 9.82065 51.6062C11.9296 57.3383 17.4386 61.4268 23.9024 61.4268H65.8781V30.1342C65.8781 27.1904 65.0301 24.4448 63.5651 22.1281ZM60.7969 17.9808V12.7266H55.5426V10.5789H60.7969V5.32459H62.9446V10.5789H68.1989V12.7266H62.9446V17.9808H60.7969ZM12.4634 28.4878H26.7073V32.939H12.4634V28.4878ZM26.7073 36.5H12.4634V40.9512H26.7073V36.5ZM12.4634 44.5122H26.7073V48.9634H12.4634V44.5122ZM44.5122 28.4878H30.2683V32.939H44.5122V28.4878ZM30.2683 36.5H44.5122V40.9512H30.2683V36.5ZM44.5122 44.5122H30.2683V48.9634H44.5122V44.5122ZM30.2683 52.5244H44.5122V56.9756H30.2683V52.5244ZM62.3171 28.4878H48.0732V32.939H62.3171V28.4878ZM48.0732 36.5H62.3171V40.9512H48.0732V36.5ZM62.3171 44.5122H48.0732V48.9634H62.3171V44.5122ZM48.0732 52.5244H62.3171V56.9756H48.0732V52.5244Z" fill="black"/>
</svg>