<svg width="76" height="52" viewBox="0 0 76 52" fill="none" xmlns="http://www.w3.org/2000/svg">
<path fill-rule="evenodd" clip-rule="evenodd" d="M15 0C6.71573 0 0 6.71573 0 15V37C0 45.2843 6.71573 52 15 52H64V15C64 6.71573 57.2843 0 49 0H15ZM20 15H4V20H20V15ZM4 24H20V29H4V24ZM20 33H4V38H20V33ZM24 15H40V20H24V15ZM40 24H24V29H40V24ZM24 33H40V38H24V33ZM40 42H24V47H40V42ZM44 15H60V20H44V15ZM60 24H44V29H60V24ZM44 33H60V38H44V33ZM60 42H44V47H60V42Z" fill="black"/>
<rect x="67" y="8" width="9" height="32" rx="1" fill="black"/>
<path d="M67 3C67 1.34315 68.3431 0 70 0H73C74.6569 0 76 1.34315 76 3V7H67V3Z" fill="black"/>
<path d="M71.5 52L67.6029 40.75L75.3971 40.75L71.5 52Z" fill="black"/>
</svg>