<svg width="57" height="57" viewBox="0 0 57 57" fill="none" xmlns="http://www.w3.org/2000/svg">
<path fill-rule="evenodd" clip-rule="evenodd" d="M28.4878 56.9756C44.2212 56.9756 56.9756 44.2212 56.9756 28.4878C56.9756 12.7544 44.2212 0 28.4878 0C12.7544 0 0 12.7544 0 28.4878C0 44.2212 12.7544 56.9756 28.4878 56.9756ZM27.6164 11.6743C28.0013 11.0076 28.9636 11.0077 29.3485 11.6743L37.6024 25.9705C37.9873 26.6371 37.5061 27.4705 36.7363 27.4705H32.0489V42.5123C32.0489 43.6169 31.1534 44.5123 30.0489 44.5123H26.9269C25.8223 44.5123 24.9269 43.6169 24.9269 42.5123V27.4705H20.2285C19.4587 27.4705 18.9776 26.6372 19.3625 25.9705L27.6164 11.6743Z" fill="black"/>
</svg>