<svg width="228" height="31" viewBox="0 0 228 31" fill="none" xmlns="http://www.w3.org/2000/svg">
<path d="M16.3942 10.3118C16.2862 9.22325 15.8229 8.3776 15.0043 7.77486C14.1856 7.17211 13.0746 6.87074 11.6712 6.87074C10.7176 6.87074 9.91241 7.00568 9.25568 7.27557C8.59896 7.53646 8.09517 7.9008 7.74432 8.36861C7.40246 8.83641 7.23153 9.36719 7.23153 9.96094C7.21354 10.4557 7.317 10.8875 7.5419 11.2564C7.77581 11.6252 8.09517 11.9446 8.5 12.2145C8.90483 12.4754 9.37263 12.7048 9.90341 12.9027C10.4342 13.0916 11.0009 13.2536 11.6037 13.3885L14.0866 13.9822C15.2921 14.2521 16.3987 14.612 17.4062 15.0618C18.4138 15.5116 19.2865 16.0649 20.0241 16.7216C20.7618 17.3783 21.3331 18.152 21.7379 19.0426C22.1518 19.9332 22.3632 20.9543 22.3722 22.1058C22.3632 23.7971 21.9313 25.2635 21.0767 26.505C20.2311 27.7375 19.0076 28.6955 17.4062 29.3793C15.8139 30.054 13.8932 30.3913 11.6442 30.3913C9.41312 30.3913 7.46993 30.0495 5.81463 29.3658C4.16832 28.6821 2.88187 27.67 1.95526 26.3295C1.03764 24.9801 0.556345 23.3113 0.511364 21.3232H6.16548C6.22846 22.2498 6.49384 23.0234 6.96165 23.6442C7.43845 24.2559 8.07268 24.7192 8.86435 25.0341C9.66501 25.34 10.5691 25.4929 11.5767 25.4929C12.5663 25.4929 13.4254 25.349 14.1541 25.0611C14.8918 24.7732 15.4631 24.3729 15.8679 23.8601C16.2727 23.3473 16.4751 22.758 16.4751 22.0923C16.4751 21.4716 16.2907 20.9498 15.9219 20.527C15.562 20.1042 15.0313 19.7443 14.3295 19.4474C13.6368 19.1506 12.7867 18.8807 11.7791 18.6378L8.76989 17.8821C6.43987 17.3153 4.60014 16.4292 3.25071 15.2237C1.90128 14.0182 1.23106 12.3944 1.24006 10.3523C1.23106 8.67898 1.67637 7.21709 2.57599 5.96662C3.48461 4.71615 4.73059 3.74006 6.31392 3.03835C7.89725 2.33665 9.6965 1.98579 11.7116 1.98579C13.7628 1.98579 15.553 2.33665 17.0824 3.03835C18.6207 3.74006 19.8172 4.71615 20.6719 5.96662C21.5265 7.21709 21.9673 8.66548 21.9943 10.3118H16.3942ZM35.5595 30.4048C33.4634 30.4048 31.6506 29.9595 30.1213 29.0689C28.6009 28.1693 27.4269 26.9188 26.5993 25.3175C25.7716 23.7071 25.3578 21.8404 25.3578 19.7173C25.3578 17.5762 25.7716 15.705 26.5993 14.1037C27.4269 12.4934 28.6009 11.2429 30.1213 10.3523C31.6506 9.45265 33.4634 9.00284 35.5595 9.00284C37.6556 9.00284 39.4638 9.45265 40.9842 10.3523C42.5136 11.2429 43.6921 12.4934 44.5197 14.1037C45.3474 15.705 45.7612 17.5762 45.7612 19.7173C45.7612 21.8404 45.3474 23.7071 44.5197 25.3175C43.6921 26.9188 42.5136 28.1693 40.9842 29.0689C39.4638 29.9595 37.6556 30.4048 35.5595 30.4048ZM35.5865 25.9517C36.5401 25.9517 37.3362 25.6818 37.975 25.142C38.6137 24.5933 39.095 23.8466 39.4189 22.902C39.7517 21.9574 39.9181 20.8823 39.9181 19.6768C39.9181 18.4714 39.7517 17.3963 39.4189 16.4517C39.095 15.5071 38.6137 14.7604 37.975 14.2116C37.3362 13.6629 36.5401 13.3885 35.5865 13.3885C34.6239 13.3885 33.8142 13.6629 33.1575 14.2116C32.5098 14.7604 32.0195 15.5071 31.6866 16.4517C31.3627 17.3963 31.2008 18.4714 31.2008 19.6768C31.2008 20.8823 31.3627 21.9574 31.6866 22.902C32.0195 23.8466 32.5098 24.5933 33.1575 25.142C33.8142 25.6818 34.6239 25.9517 35.5865 25.9517ZM55.2477 2.36364V30H49.4991V2.36364H55.2477ZM73.1445 21.1747V9.27273H78.8931V30H73.3739V26.2351H73.158C72.6902 27.4496 71.9121 28.4257 70.8235 29.1634C69.744 29.901 68.426 30.2699 66.8697 30.2699C65.4843 30.2699 64.2653 29.955 63.2127 29.3253C62.1602 28.6955 61.337 27.8004 60.7433 26.6399C60.1585 25.4794 59.8616 24.0895 59.8526 22.4702V9.27273H65.6012V21.4446C65.6102 22.6681 65.9386 23.6352 66.5863 24.3459C67.234 25.0566 68.1022 25.4119 69.1907 25.4119C69.8834 25.4119 70.5311 25.2545 71.1339 24.9396C71.7366 24.6158 72.2224 24.139 72.5913 23.5092C72.9691 22.8795 73.1535 22.1013 73.1445 21.1747ZM94.5162 9.27273V13.5909H82.0339V9.27273H94.5162ZM84.8677 4.30682H90.6163V23.6307C90.6163 24.1615 90.6973 24.5753 90.8592 24.8722C91.0211 25.16 91.246 25.3625 91.5339 25.4794C91.8308 25.5964 92.1726 25.6548 92.5595 25.6548C92.8294 25.6548 93.0993 25.6323 93.3691 25.5874C93.639 25.5334 93.8459 25.4929 93.9899 25.4659L94.894 29.7436C94.6061 29.8336 94.2013 29.937 93.6795 30.054C93.1577 30.1799 92.5235 30.2564 91.7768 30.2834C90.3914 30.3374 89.1769 30.1529 88.1333 29.7301C87.0988 29.3073 86.2936 28.6506 85.7179 27.7599C85.1421 26.8693 84.8587 25.7448 84.8677 24.3864V4.30682ZM98.2608 30V9.27273H104.009V30H98.2608ZM101.149 6.60085C100.294 6.60085 99.5608 6.31747 98.949 5.75071C98.3463 5.17495 98.0449 4.48674 98.0449 3.68608C98.0449 2.89441 98.3463 2.2152 98.949 1.64844C99.5608 1.07268 100.294 0.7848 101.149 0.7848C102.003 0.7848 102.732 1.07268 103.335 1.64844C103.946 2.2152 104.252 2.89441 104.252 3.68608C104.252 4.48674 103.946 5.17495 103.335 5.75071C102.732 6.31747 102.003 6.60085 101.149 6.60085ZM117.979 30.4048C115.883 30.4048 114.071 29.9595 112.541 29.0689C111.021 28.1693 109.847 26.9188 109.019 25.3175C108.192 23.7071 107.778 21.8404 107.778 19.7173C107.778 17.5762 108.192 15.705 109.019 14.1037C109.847 12.4934 111.021 11.2429 112.541 10.3523C114.071 9.45265 115.883 9.00284 117.979 9.00284C120.076 9.00284 121.884 9.45265 123.404 10.3523C124.933 11.2429 126.112 12.4934 126.94 14.1037C127.767 15.705 128.181 17.5762 128.181 19.7173C128.181 21.8404 127.767 23.7071 126.94 25.3175C126.112 26.9188 124.933 28.1693 123.404 29.0689C121.884 29.9595 120.076 30.4048 117.979 30.4048ZM118.006 25.9517C118.96 25.9517 119.756 25.6818 120.395 25.142C121.034 24.5933 121.515 23.8466 121.839 22.902C122.172 21.9574 122.338 20.8823 122.338 19.6768C122.338 18.4714 122.172 17.3963 121.839 16.4517C121.515 15.5071 121.034 14.7604 120.395 14.2116C119.756 13.6629 118.96 13.3885 118.006 13.3885C117.044 13.3885 116.234 13.6629 115.577 14.2116C114.93 14.7604 114.439 15.5071 114.107 16.4517C113.783 17.3963 113.621 18.4714 113.621 19.6768C113.621 20.8823 113.783 21.9574 114.107 22.902C114.439 23.8466 114.93 24.5933 115.577 25.142C116.234 25.6818 117.044 25.9517 118.006 25.9517ZM137.668 18.017V30H131.919V9.27273H137.398V12.9297H137.641C138.099 11.7242 138.869 10.7706 139.948 10.0689C141.028 9.35819 142.337 9.00284 143.875 9.00284C145.314 9.00284 146.569 9.31771 147.64 9.94744C148.71 10.5772 149.543 11.4768 150.136 12.6463C150.73 13.8068 151.027 15.1922 151.027 16.8026V30H145.278V17.8281C145.287 16.5597 144.964 15.5701 144.307 14.8594C143.65 14.1397 142.746 13.7798 141.594 13.7798C140.821 13.7798 140.137 13.9463 139.543 14.2791C138.959 14.612 138.5 15.0978 138.167 15.7365C137.843 16.3662 137.677 17.1264 137.668 18.017Z" fill="#008AFF"/>
<path d="M181.062 16.1818C181.062 19.1955 180.491 21.7595 179.348 23.8736C178.215 25.9877 176.667 27.6025 174.706 28.718C172.754 29.8246 170.559 30.3778 168.121 30.3778C165.665 30.3778 163.461 29.8201 161.509 28.7045C159.557 27.589 158.014 25.9742 156.88 23.8601C155.747 21.746 155.18 19.1866 155.18 16.1818C155.18 13.1681 155.747 10.6042 156.88 8.49006C158.014 6.37595 159.557 4.76562 161.509 3.65909C163.461 2.54356 165.665 1.98579 168.121 1.98579C170.559 1.98579 172.754 2.54356 174.706 3.65909C176.667 4.76562 178.215 6.37595 179.348 8.49006C180.491 10.6042 181.062 13.1681 181.062 16.1818ZM175.138 16.1818C175.138 14.2296 174.846 12.5833 174.261 11.2429C173.685 9.90246 172.871 8.88589 171.818 8.19318C170.766 7.50047 169.533 7.15412 168.121 7.15412C166.709 7.15412 165.476 7.50047 164.423 8.19318C163.371 8.88589 162.552 9.90246 161.968 11.2429C161.392 12.5833 161.104 14.2296 161.104 16.1818C161.104 18.134 161.392 19.7803 161.968 21.1207C162.552 22.4612 163.371 23.4777 164.423 24.1705C165.476 24.8632 166.709 25.2095 168.121 25.2095C169.533 25.2095 170.766 24.8632 171.818 24.1705C172.871 23.4777 173.685 22.4612 174.261 21.1207C174.846 19.7803 175.138 18.134 175.138 16.1818ZM191.031 18.017V30H185.282V9.27273H190.761V12.9297H191.004C191.463 11.7242 192.232 10.7706 193.311 10.0689C194.391 9.35819 195.7 9.00284 197.238 9.00284C198.678 9.00284 199.933 9.31771 201.003 9.94744C202.074 10.5772 202.906 11.4768 203.5 12.6463C204.093 13.8068 204.39 15.1922 204.39 16.8026V30H198.642V17.8281C198.651 16.5597 198.327 15.5701 197.67 14.8594C197.013 14.1397 196.109 13.7798 194.958 13.7798C194.184 13.7798 193.5 13.9463 192.907 14.2791C192.322 14.612 191.863 15.0978 191.53 15.7365C191.206 16.3662 191.04 17.1264 191.031 18.017ZM218.367 30.4048C216.235 30.4048 214.4 29.973 212.861 29.1094C211.332 28.2367 210.153 27.0043 209.326 25.4119C208.498 23.8106 208.084 21.9169 208.084 19.7308C208.084 17.5987 208.498 15.7275 209.326 14.1172C210.153 12.5069 211.318 11.2519 212.821 10.3523C214.332 9.45265 216.104 9.00284 218.138 9.00284C219.505 9.00284 220.778 9.22325 221.956 9.66406C223.144 10.0959 224.179 10.7481 225.06 11.6207C225.951 12.4934 226.644 13.5909 227.138 14.9134C227.633 16.2268 227.881 17.7652 227.881 19.5284V21.1072H210.378V17.5447H222.469C222.469 16.7171 222.289 15.9839 221.93 15.3452C221.57 14.7064 221.07 14.2071 220.432 13.8473C219.802 13.4785 219.069 13.294 218.232 13.294C217.359 13.294 216.586 13.4964 215.911 13.9013C215.245 14.2971 214.724 14.8324 214.346 15.5071C213.968 16.1728 213.774 16.915 213.765 17.7337V21.1207C213.765 22.1463 213.954 23.0324 214.332 23.7791C214.719 24.5258 215.263 25.1016 215.965 25.5064C216.667 25.9112 217.499 26.1136 218.461 26.1136C219.1 26.1136 219.685 26.0237 220.216 25.8438C220.747 25.6638 221.201 25.3939 221.579 25.0341C221.956 24.6742 222.244 24.2334 222.442 23.7116L227.759 24.0625C227.489 25.34 226.936 26.4555 226.099 27.4091C225.272 28.3537 224.201 29.0914 222.888 29.6222C221.583 30.1439 220.076 30.4048 218.367 30.4048Z" fill="black"/>
</svg>