<svg width="1581" height="1080" viewBox="0 0 1581 1080" fill="none" xmlns="http://www.w3.org/2000/svg">
<path d="M835.25 1921.81L63.1575 1181.69C72.0707 1119.94 80.984 1058.19 106.729 1020.31C132.475 982.441 175.052 968.443 241.919 951.044C308.786 933.645 399.942 912.845 441.933 877.628C483.925 842.411 476.752 792.777 475.755 734.708C474.757 676.639 479.935 610.135 530.94 569.502C581.945 528.868 678.777 514.104 735.364 483.206C791.951 452.307 808.293 405.273 823.813 360.577C839.333 315.881 854.03 273.524 915.194 251.45C976.357 229.376 1083.99 227.586 1139.71 199.388C1195.44 171.189 1199.27 116.582 1221.58 72.5867C1243.9 28.5917 1284.7 -4.79138 1307.27 -52.6851C1329.84 -100.579 1334.17 -162.983 1372.28 -197.782C1410.4 -232.58 1482.3 -239.773 1526.12 -272.701C1569.93 -305.629 1585.64 -364.292 1601.36 -422.955L2373.45 317.171L835.25 1921.81Z" fill="#008AFF" fill-opacity="0.266667"/>
<path d="M835.242 1921.8L256.176 1366.71C300.779 1327.85 345.383 1288.99 394.979 1268.83C444.576 1248.67 499.165 1247.22 519.76 1193.86C540.355 1140.5 526.957 1035.24 560.326 980.427C593.695 925.612 673.832 921.243 722.705 896.593C771.577 871.943 789.185 827.013 794.646 777.385C800.108 727.758 793.424 673.432 847.46 650.533C901.496 627.633 1016.25 636.16 1058.5 587.689C1100.76 539.219 1070.51 433.751 1079.98 385.892C1089.45 338.032 1138.64 347.781 1210.93 340.359C1283.22 332.937 1378.62 308.344 1415.98 258.935C1453.34 209.526 1432.67 135.3 1453.9 100.7C1475.13 66.0992 1538.26 71.1237 1601.36 51.7465C1664.46 32.3694 1727.54 -11.4094 1759.7 -63.7555C1791.87 -116.102 1793.12 -177.015 1794.38 -237.928L2373.45 317.163L835.242 1921.8Z" fill="#008AFF" fill-opacity="0.4"/>
<path d="M835.249 1921.81L449.204 1551.75C478.3 1489.54 507.397 1427.34 532.958 1373.3C558.52 1319.26 580.547 1273.4 619.718 1246.91C658.889 1220.43 715.205 1213.33 749.082 1169.92C782.958 1126.51 794.396 1046.79 833.941 1009.64C873.486 972.483 941.139 977.89 1009.11 978.696C1077.09 979.503 1145.38 975.709 1177.84 935.159C1210.3 894.61 1206.91 817.305 1216 740.799C1225.08 664.293 1246.64 588.586 1280 549.833C1313.36 511.081 1358.52 509.284 1390.24 465.196C1421.95 421.108 1440.22 334.73 1492.71 319.659C1545.19 304.588 1631.89 360.824 1691.08 347.31C1750.27 333.795 1781.96 250.528 1794.59 181.378C1807.22 112.227 1800.79 57.1913 1829.75 20.499C1858.71 -16.1932 1923.06 -34.5424 1987.41 -52.8916L2373.45 317.17L835.249 1921.81Z" fill="#008AFF" fill-opacity="0.533333"/>
<path d="M835.248 1921.81L642.225 1736.78C711.278 1704.86 780.33 1672.94 824.18 1654.6C868.03 1636.26 886.677 1631.49 895.885 1571.52C905.094 1511.55 904.864 1396.37 939.482 1343.88C974.1 1291.4 1043.57 1301.63 1097.18 1289.77C1150.79 1277.92 1188.55 1244 1218.41 1196.43C1248.27 1148.86 1270.23 1087.64 1307.75 1061.83C1345.27 1036.02 1398.35 1045.63 1424.12 987.35C1449.9 929.068 1448.37 802.896 1497.7 767.075C1547.04 731.254 1647.24 785.784 1693.9 777.674C1740.57 769.563 1733.69 698.812 1734.58 622.082C1735.48 545.352 1744.14 462.643 1785.25 411.913C1826.35 361.183 1899.89 342.433 1963.68 330.645C2027.48 318.856 2081.54 314.03 2116.04 282.106C2150.54 250.182 2165.49 191.16 2180.43 132.138L2373.45 317.169L835.248 1921.81Z" fill="#008AFF"/>
</svg>