<?xml version="1.0" encoding="UTF-8" standalone="no"?>
<!-- Created with Inkscape (http://www.inkscape.org/) -->

<svg
   width="1920"
   height="1080"
   viewBox="0 0 507.99998 285.75"
   version="1.1"
   id="svg5"
   xml:space="preserve"
   inkscape:export-filename="wave.png"
   inkscape:export-xdpi="96"
   inkscape:export-ydpi="96"
   inkscape:version="1.2.1 (9c6d41e410, 2022-07-14)"
   sodipodi:docname="wave.svg"
   xmlns:inkscape="http://www.inkscape.org/namespaces/inkscape"
   xmlns:sodipodi="http://sodipodi.sourceforge.net/DTD/sodipodi-0.dtd"
   xmlns="http://www.w3.org/2000/svg"
   xmlns:svg="http://www.w3.org/2000/svg"><sodipodi:namedview
     id="namedview7"
     pagecolor="#505050"
     bordercolor="#ffffff"
     borderopacity="1"
     inkscape:showpageshadow="0"
     inkscape:pageopacity="0"
     inkscape:pagecheckerboard="1"
     inkscape:deskcolor="#505050"
     inkscape:document-units="mm"
     showgrid="false"
     inkscape:zoom="0.39121668"
     inkscape:cx="310.56958"
     inkscape:cy="331.01861"
     inkscape:window-width="1920"
     inkscape:window-height="1003"
     inkscape:window-x="0"
     inkscape:window-y="40"
     inkscape:window-maximized="1"
     inkscape:current-layer="layer1" /><defs
     id="defs2" /><g
     inkscape:label="Layer 1"
     inkscape:groupmode="layer"
     id="layer1"><rect
       style="fill:#f2f2f2;stroke:#ffffff;stroke-width:0"
       id="rect234"
       width="508"
       height="285.75"
       x="0"
       y="0" /><path
       fill="#bbe0ff"
       fill-opacity="1"
       d="m 0.09027,126.1387 14.111105,-2.24996 c 14.111105,-2.41976 42.333329,-6.66497 70.555553,0 28.222212,6.91969 56.444432,24.74955 84.666662,22.62694 28.22222,-2.12259 56.44443,-25.0467 84.66665,-24.91934 28.22223,-0.1274 56.44444,22.79675 84.66666,38.504 28.22222,15.70725 41.6276,-14.80557 69.84982,-17.22534 28.22222,-2.24997 42.67446,34.13959 65.48333,27.70034 18.83851,-5.31836 34.13555,-47.78423 34.13555,-47.78423 l -0.13538,98.44017 H 493.97911 423.42356 338.7569 254.09024 169.42359 84.756928 14.201375 0.09027 Z"
       id="path4527"
       style="stroke-width:0.386989"
       sodipodi:nodetypes="cccscscaccccccccccc" /><path
       fill="#70bdff"
       fill-opacity="1"
       d="m -0.04511336,212.84884 7.05931496,2.0674 c 7.0593164,2.22342 21.1779484,6.12418 35.2965844,-6.24121 14.118625,-12.59942 28.23725,-41.46497 42.355888,-39.51459 14.118625,1.95037 28.237296,35.49682 42.355936,35.3798 14.11863,0.11702 28.23726,-33.42943 42.35589,-37.4472 14.11863,-4.1738 28.23726,20.791 42.35588,20.791 14.11863,0 28.23726,-24.9648 42.35589,-24.9648 14.11863,0 28.23726,24.9648 42.35589,35.3798 14.11863,10.25897 28.23726,6.35822 42.35589,-4.1738 14.11863,-10.53203 28.23726,-26.91518 42.35589,-35.37981 14.11863,-8.30859 28.23726,-8.30859 42.35588,-2.06739 14.11863,6.2412 28.23726,18.7236 42.35589,16.6562 14.11863,-2.22343 28.23726,-18.60658 35.29657,-27.0712 l 7.05932,-8.3086 v 112.3416 h -7.05932 c -7.05931,0 -21.17794,0 -35.29657,0 -14.11863,0 -28.23726,0 -42.35589,0 -14.11862,0 -28.23725,0 -42.35588,0 -14.11863,0 -28.23726,0 -42.35589,0 -14.11863,0 -28.23726,0 -42.35589,0 -14.11863,0 -28.23726,0 -42.35589,0 -14.11863,0 -28.23726,0 -42.35589,0 -14.11862,0 -28.23725,0 -42.35588,0 -14.11863,0 -28.23726,0 -42.35589,0 -14.11864,0 -28.237311,0 -42.355936,0 -14.118638,0 -28.237263,0 -42.355888,0 -14.118636,0 -28.237268,0 -35.2965844,0 h -7.05931496 z"
       id="path551"
       style="stroke-width:0.371056" /><path
       fill="#35a2ff"
       fill-opacity="1"
       d="m 0.33830716,169.75173 8.45538974,12.87614 c 8.4553891,13.01423 25.3661691,38.55939 42.2769481,40.52706 16.91078,1.82958 33.821559,-20.26354 50.732335,-29.48051 16.91078,-9.07888 33.82157,-5.62685 50.73235,5.52329 16.91077,10.94299 33.82155,29.58406 50.73233,35.00377 16.91078,5.62684 33.82156,-1.96766 50.73234,-12.91067 16.91078,-11.15011 33.82156,-25.64871 50.73234,-23.9227 16.91078,1.72603 33.82156,20.36709 50.73234,16.56985 16.91078,-3.79726 33.82156,-29.34242 50.73234,-33.13968 16.91078,-3.79725 33.82156,14.84382 50.73233,18.39943 16.91078,3.69368 33.82156,-7.35287 42.27695,-12.87614 l 8.45539,-5.52329 v 88.37246 h -8.45539 c -8.45539,0 -25.36617,0 -42.27695,0 -16.91077,0 -33.82155,0 -50.73233,0 -16.91078,0 -33.82156,0 -50.73234,0 -16.91078,0 -33.82156,0 -50.73234,0 -16.91078,0 -33.82156,0 -50.73234,0 -16.91078,0 -33.82156,0 -50.73234,0 -16.91078,0 -33.82156,0 -50.73233,0 -16.91078,0 -33.82157,0 -50.73235,0 -16.910776,0 -33.821555,0 -50.732335,0 -16.910779,0 -33.821559,0 -42.2769481,0 H 0.33830716 Z"
       id="path385"
       style="stroke-width:0.348739" /><path
       fill="#0099ff"
       fill-opacity="1"
       d="m 0,234.95 8.4666667,-1.40229 C 16.933333,232.03959 33.866667,229.39375 50.8,230.71667 c 16.933333,1.32292 33.866667,7.14375 50.8,15.53104 16.93333,8.54604 33.86667,19.65854 50.8,14.10229 16.93333,-5.55625 33.86667,-28.31041 50.8,-32.46437 16.93333,-4.31271 33.86667,9.97479 50.8,14.12875 16.93333,4.31271 33.86667,-1.50813 50.8,-7.06438 16.93333,-5.55625 33.86667,-11.37708 50.8,-11.2977 16.93333,-0.0794 33.86667,5.74145 50.8,9.89541 16.93333,4.31271 33.86667,6.95854 50.8,4.23334 C 474.13333,234.95 491.06667,226.48334 499.53333,222.25 L 508,218.01667 V 285.75 h -8.46667 c -8.46666,0 -25.4,0 -42.33333,0 -16.93333,0 -33.86667,0 -50.8,0 -16.93333,0 -33.86667,0 -50.8,0 -16.93333,0 -33.86667,0 -50.8,0 -16.93333,0 -33.86667,0 -50.8,0 -16.93333,0 -33.86667,0 -50.8,0 -16.93333,0 -33.86667,0 -50.8,0 -16.93333,0 -33.86667,0 -50.8,0 -16.933333,0 -33.866668,0 -50.800001,0 -16.933332,0 -33.866667,0 -42.3333323,0 H 0 Z"
       id="path376"
       style="stroke-width:0.305514;fill:#0088e3;fill-opacity:1" /></g></svg>
